<svg xmlns="http://www.w3.org/2000/svg" viewBox="0 0 512 512">
  <defs>
    <linearGradient id="bg" x1="0" y1="0" x2="1" y2="1">
      <stop offset="0" stop-color="#ffd6e8"/>
      <stop offset="1" stop-color="#c5e8ff"/>
    </linearGradient>
  </defs>
  <rect width="512" height="512" rx="110" fill="url(#bg)"/>
  <g transform="translate(256 268)">
    <!-- open book -->
    <path d="M-150 -30 q60 -40 150 -10 q90 -30 150 10 l0 150 q-60 -30 -150 0 q-90 -30 -150 0 z" fill="#fff" stroke="#8a5cff" stroke-width="14" stroke-linejoin="round"/>
    <path d="M0 -40 L0 110" stroke="#8a5cff" stroke-width="14" stroke-linecap="round"/>
    <path d="M-120 -10 q50 -22 110 0 M-120 25 q50 -22 110 0 M-120 60 q50 -22 110 0" stroke="#ffb3d1" stroke-width="9" fill="none" stroke-linecap="round"/>
    <path d="M10 -10 q50 -22 110 0 M10 25 q50 -22 110 0 M10 60 q50 -22 110 0" stroke="#9fd3ff" stroke-width="9" fill="none" stroke-linecap="round"/>
  </g>
  <!-- sparkle -->
  <g fill="#ffcf3f">
    <path d="M150 120 l10 26 26 10 -26 10 -10 26 -10 -26 -26 -10 26 -10 z"/>
    <path d="M380 150 l7 18 18 7 -18 7 -7 18 -7 -18 -18 -7 18 -7 z"/>
  </g>
</svg>
